<svg xmlns="http://www.w3.org/2000/svg" xmlns:xlink="http://www.w3.org/1999/xlink" width="175" height="51.269" viewBox="0 0 175 51.269">
  <defs>
    <clipPath id="clip-path">
      <path id="Pfad_67" data-name="Pfad 67" d="M.029,4.732h175V-46.537H.029Z" transform="translate(-0.029 46.537)" fill="none"/>
    </clipPath>
  </defs>
  <g id="Gruppe_63" data-name="Gruppe 63" transform="translate(-0.029 46.537)">
    <g id="Gruppe_62" data-name="Gruppe 62" transform="translate(0.029 -46.537)" clip-path="url(#clip-path)">
      <g id="Gruppe_1" data-name="Gruppe 1" transform="translate(148.814 1.866)">
        <path id="Pfad_1" data-name="Pfad 1" d="M.834,1.251V-3.1a.562.562,0,0,0-.406-.539l-1.8-.513.295-.2A.932.932,0,0,0-.662-5.13V-6.6a.562.562,0,0,0-.56-.561h-1.5a.563.563,0,0,0-.561.561V-5.13a.934.934,0,0,0,.416.778l.295.195-1.8.515a.564.564,0,0,0-.406.539V1.251a.936.936,0,0,0,.751.916l.08,5.468a.545.545,0,0,0,.543.531h.715a.542.542,0,0,0,.543-.544l-.014-5.436h.374L-1.8,7.622a.542.542,0,0,0,.543.544h.717A.545.545,0,0,0,0,7.635l.08-5.469a.936.936,0,0,0,.751-.915M-2.655-4.664a.559.559,0,0,1-.25-.466V-6.6a.188.188,0,0,1,.188-.188h1.5a.188.188,0,0,1,.187.188V-5.13a.559.559,0,0,1-.25.466l-.374.249a.557.557,0,0,1-.623,0ZM.46,1.251a.561.561,0,0,1-.375.526V-1.89A.186.186,0,0,0-.1-2.077a.186.186,0,0,0-.187.187V2L-.37,7.628a.17.17,0,0,1-.168.164h-.717a.167.167,0,0,1-.168-.169L-1.41,2A.186.186,0,0,0-1.6,1.812h-.747A.186.186,0,0,0-2.53,2l.014,5.624a.168.168,0,0,1-.169.169H-3.4a.17.17,0,0,1-.169-.164L-3.652,2V-1.89a.186.186,0,0,0-.187-.187.186.186,0,0,0-.187.187V1.777A.56.56,0,0,1-4.4,1.251V-3.1a.186.186,0,0,1,.135-.18l2.294-.655,2.3.657A.185.185,0,0,1,.46-3.1Z" transform="translate(4.774 7.16)" fill="#2b2e34"/>
      </g>
      <g id="Gruppe_2" data-name="Gruppe 2" transform="translate(153.899 1.865)">
        <path id="Pfad_2" data-name="Pfad 2" d="M.662,0A.936.936,0,0,0-.255.748H-1.582A.185.185,0,0,0-1.714.8L-3.733,2.82a.187.187,0,0,0,0,.264.184.184,0,0,0,.264,0L-1.5,1.122h1.25A.935.935,0,1,0,.662,0m0,1.5a.561.561,0,1,1,.56-.56.562.562,0,0,1-.56.56" transform="translate(3.787)" fill="#2b2e34"/>
      </g>
      <g id="Gruppe_3" data-name="Gruppe 3" transform="translate(143.954 1.866)">
        <path id="Pfad_3" data-name="Pfad 3" d="M.139.278A.937.937,0,0,0,1.055-.47h1.25L4.269,1.494a.187.187,0,1,0,.264-.264L2.514-.789a.186.186,0,0,0-.132-.055H1.055a.937.937,0,0,0-.916-.747A.935.935,0,0,0-.8-.657.936.936,0,0,0,.139.278m0-1.5a.561.561,0,0,1,.56.56A.562.562,0,0,1,.139-.1a.562.562,0,0,1-.56-.561.561.561,0,0,1,.56-.56" transform="translate(0.796 1.591)" fill="#2b2e34"/>
      </g>
      <g id="Gruppe_4" data-name="Gruppe 4" transform="translate(143.954 14.158)">
        <path id="Pfad_4" data-name="Pfad 4" d="M.737.008-1.122,1.868H-2.371a.937.937,0,0,0-.916-.747.935.935,0,0,0-.935.934.936.936,0,0,0,.935.935.938.938,0,0,0,.916-.748h1.326a.186.186,0,0,0,.133-.054L1,.272A.187.187,0,0,0,.737.008M-3.287,2.616a.563.563,0,0,1-.561-.561.562.562,0,0,1,.561-.56.562.562,0,0,1,.56.56.563.563,0,0,1-.56.561" transform="translate(4.222 0.046)" fill="#2b2e34"/>
      </g>
      <g id="Gruppe_5" data-name="Gruppe 5" transform="translate(154.003 14.157)">
        <path id="Pfad_5" data-name="Pfad 5" d="M.646.174A.935.935,0,0,0-.27.922H-1.52L-3.38-.939a.187.187,0,0,0-.264,0,.187.187,0,0,0,0,.264L-1.729,1.24A.186.186,0,0,0-1.6,1.3H-.27A.935.935,0,1,0,.646.174m0,1.5a.561.561,0,1,1,.56-.56.563.563,0,0,1-.56.56" transform="translate(3.698 0.993)" fill="#2b2e34"/>
      </g>
      <g id="Gruppe_6" data-name="Gruppe 6" transform="translate(127.29 2.148)">
        <path id="Pfad_6" data-name="Pfad 6" d="M.05.889a.187.187,0,0,0-.182.147,7.77,7.77,0,0,0,0,3.072.185.185,0,0,0,.182.147h1.4A5.414,5.414,0,0,0,2,5.565l-1,1a.188.188,0,0,0-.023.237A8.181,8.181,0,0,0,3.145,8.979a.187.187,0,0,0,.237-.023l1-1a5.219,5.219,0,0,0,.682.334.188.188,0,0,0,.135-.35,5.166,5.166,0,0,1-.747-.378.187.187,0,0,0-.231.027l-1,1A7.765,7.765,0,0,1,1.369,6.722l1-1a.187.187,0,0,0,.027-.231,5.1,5.1,0,0,1-.621-1.472A.186.186,0,0,0,1.59,3.88H.2a7.678,7.678,0,0,1,0-2.617H1.59a.185.185,0,0,0,.181-.141A5.072,5.072,0,0,1,2.392-.35a.187.187,0,0,0-.027-.231l-1-1A7.744,7.744,0,0,1,3.229-3.437l1,1a.189.189,0,0,0,.231.027,5.038,5.038,0,0,1,1.472-.62.188.188,0,0,0,.142-.182V-4.6a7.476,7.476,0,0,1,2.617,0v1.387a.187.187,0,0,0,.141.182,5.058,5.058,0,0,1,1.473.62.187.187,0,0,0,.23-.027l1-1a7.744,7.744,0,0,1,1.859,1.859l-1,1a.185.185,0,0,0-.026.231,5.1,5.1,0,0,1,.62,1.472.185.185,0,0,0,.181.141h1.388a7.678,7.678,0,0,1,0,2.617H13.167a.188.188,0,0,0-.182.142,5.1,5.1,0,0,1-.62,1.472.188.188,0,0,0,.026.231l1,1a7.765,7.765,0,0,1-1.859,1.859l-1-1a.187.187,0,0,0-.231-.027,5.166,5.166,0,0,1-.747.378.188.188,0,0,0-.107.243.19.19,0,0,0,.242.107,5.219,5.219,0,0,0,.682-.334l1,1a.187.187,0,0,0,.237.023,8.159,8.159,0,0,0,2.173-2.174.187.187,0,0,0-.022-.237l-1-1a5.414,5.414,0,0,0,.551-1.31h1.4a.186.186,0,0,0,.182-.147,7.792,7.792,0,0,0,0-3.072.187.187,0,0,0-.182-.147h-1.4a5.5,5.5,0,0,0-.552-1.31l1-1a.188.188,0,0,0,.023-.237,8.125,8.125,0,0,0-2.174-2.173.189.189,0,0,0-.237.022l-1,1a5.454,5.454,0,0,0-1.31-.551v-1.4a.187.187,0,0,0-.147-.183,7.765,7.765,0,0,0-3.071,0,.187.187,0,0,0-.148.183v1.4a5.454,5.454,0,0,0-1.31.551l-1-1a.188.188,0,0,0-.237-.022A8.142,8.142,0,0,0,.971-1.661a.188.188,0,0,0,.023.237l1,1A5.454,5.454,0,0,0,1.447.889Z" transform="translate(0.286 5.092)" fill="#2b2e34"/>
      </g>
      <g id="Gruppe_7" data-name="Gruppe 7" transform="translate(131.029 5.886)">
        <path id="Pfad_7" data-name="Pfad 7" d="M.9,1.006a.187.187,0,0,0,.224.3A3.952,3.952,0,0,0,2.7-1.835,3.93,3.93,0,0,0-1.23-5.761,3.93,3.93,0,0,0-5.155-1.835,3.951,3.951,0,0,0-3.586,1.306a.189.189,0,0,0,.262-.038.188.188,0,0,0-.036-.262A3.572,3.572,0,0,1-4.781-1.835,3.555,3.555,0,0,1-1.23-5.386,3.555,3.555,0,0,1,2.322-1.835,3.572,3.572,0,0,1,.9,1.006" transform="translate(5.155 5.761)" fill="#2b2e34"/>
      </g>
      <g id="Gruppe_8" data-name="Gruppe 8" transform="translate(132.523 9.625)">
        <path id="Pfad_8" data-name="Pfad 8" d="M.139,1.167A.186.186,0,0,0,.326.981V-4.833a.937.937,0,0,0,.748-.916.936.936,0,0,0-.935-.935A.936.936,0,0,0-.8-5.749a.937.937,0,0,0,.748.916V.981a.186.186,0,0,0,.187.187m-.56-6.916a.561.561,0,0,1,.56-.561.561.561,0,0,1,.56.561.561.561,0,0,1-.56.56.561.561,0,0,1-.56-.56" transform="translate(0.796 6.684)" fill="#2b2e34"/>
      </g>
      <g id="Gruppe_9" data-name="Gruppe 9" transform="translate(134.018 7.382)">
        <path id="Pfad_9" data-name="Pfad 9" d="M.139,1.5a.186.186,0,0,0,.187-.187V-6.743a.936.936,0,0,0,.748-.916.935.935,0,0,0-.935-.934A.935.935,0,0,0-.8-7.659a.936.936,0,0,0,.748.916V1.314A.186.186,0,0,0,.139,1.5m-.56-9.16a.561.561,0,0,1,.56-.56.561.561,0,0,1,.56.56.562.562,0,0,1-.56.561.562.562,0,0,1-.56-.561" transform="translate(0.796 8.593)" fill="#2b2e34"/>
      </g>
      <g id="Gruppe_10" data-name="Gruppe 10" transform="translate(135.514 9.625)">
        <path id="Pfad_10" data-name="Pfad 10" d="M.139,1.167A.186.186,0,0,0,.326.981V-4.833a.937.937,0,0,0,.748-.916.936.936,0,0,0-.935-.935A.936.936,0,0,0-.8-5.749a.937.937,0,0,0,.748.916V.981a.186.186,0,0,0,.187.187m-.56-6.916a.561.561,0,0,1,.56-.561.561.561,0,0,1,.56.561.561.561,0,0,1-.56.56.561.561,0,0,1-.56-.56" transform="translate(0.796 6.684)" fill="#2b2e34"/>
      </g>
      <g id="Gruppe_11" data-name="Gruppe 11" transform="translate(160.109 2.18)">
        <path id="Pfad_11" data-name="Pfad 11" d="M2.187.378a.181.181,0,0,0,0-.363H.916V-.53A.182.182,0,0,0,.734-.711H.189V-1.982a.181.181,0,0,0-.181-.182.182.182,0,0,0-.182.182V-.711h-1.09V-1.982a.181.181,0,0,0-.181-.182.181.181,0,0,0-.181.182V-.711h-1.09V-1.982A.181.181,0,0,0-2.9-2.164a.182.182,0,0,0-.183.182V-.711H-4.169V-1.982a.181.181,0,0,0-.182-.182.181.181,0,0,0-.181.182V-.711h-1.09V-1.982A.181.181,0,0,0-5.8-2.164a.182.182,0,0,0-.182.182V-.711H-7.074V-1.982a.182.182,0,0,0-.182-.182.182.182,0,0,0-.182.182V-.711H-8.527V-1.982a.181.181,0,0,0-.182-.182.181.181,0,0,0-.181.182V-.711H-9.98V-1.982a.181.181,0,0,0-.182-.182.181.181,0,0,0-.181.182V-.711h-.545a.182.182,0,0,0-.182.181V.015h-1.271A.181.181,0,0,0-12.522.2a.181.181,0,0,0,.181.181h1.271v1.09h-1.271a.181.181,0,0,0-.181.181.181.181,0,0,0,.181.182h1.271V2.92h-1.271a.182.182,0,0,0-.181.182.181.181,0,0,0,.181.182h1.271V4.373h-1.271a.181.181,0,0,0-.181.182.182.182,0,0,0,.181.182h1.271V5.826h-1.271a.181.181,0,0,0-.181.182.181.181,0,0,0,.181.181h1.271v1.09h-1.271a.181.181,0,0,0-.181.181.181.181,0,0,0,.181.182h1.271v1.09h-1.271a.181.181,0,0,0-.181.181.182.182,0,0,0,.181.182h1.271v1.089h-1.271a.181.181,0,0,0-.181.182.181.181,0,0,0,.181.181h1.271v.545a.182.182,0,0,0,.182.182h.545v1.271a.182.182,0,0,0,.181.182.182.182,0,0,0,.182-.182V11.274h1.09v1.271a.182.182,0,0,0,.181.182.182.182,0,0,0,.182-.182V11.274h1.089v1.271a.183.183,0,0,0,.182.182.183.183,0,0,0,.182-.182V11.274h1.089v1.271a.183.183,0,0,0,.182.182.182.182,0,0,0,.181-.182V11.274h1.09v1.271a.182.182,0,0,0,.181.182.182.182,0,0,0,.182-.182V11.274H-3.08v1.271a.183.183,0,0,0,.183.182.182.182,0,0,0,.181-.182V11.274h1.09v1.271a.182.182,0,0,0,.181.182.182.182,0,0,0,.181-.182V11.274h1.09v1.271a.183.183,0,0,0,.182.182.182.182,0,0,0,.181-.182V11.274H.734a.182.182,0,0,0,.182-.182v-.545H2.187a.181.181,0,0,0,0-.363H.916V9.1H2.187a.181.181,0,0,0,0-.363H.916V7.642H2.187a.181.181,0,0,0,0-.363H.916V6.189H2.187a.181.181,0,0,0,0-.363H.916V4.737H2.187a.182.182,0,0,0,0-.364H.916V3.284H2.187a.182.182,0,0,0,0-.364H.916V1.831H2.187a.181.181,0,0,0,0-.363H.916V.378ZM.552,10.91H-10.707V-.349H.552Z" transform="translate(12.522 2.164)" fill="#2b2e34"/>
      </g>
      <g id="Gruppe_12" data-name="Gruppe 12" transform="translate(163.014 5.085)">
        <path id="Pfad_12" data-name="Pfad 12" d="M.135,1.35H7.4A.909.909,0,0,0,8.307.442V-6.822A.909.909,0,0,0,7.4-7.73H.135a.909.909,0,0,0-.908.908V.442a.909.909,0,0,0,.908.908M-.41-6.822a.545.545,0,0,1,.545-.545H7.4a.545.545,0,0,1,.544.545V.442A.545.545,0,0,1,7.4.987H.135A.545.545,0,0,1-.41.442Z" transform="translate(0.773 7.73)" fill="#2b2e34"/>
      </g>
      <g id="Gruppe_13" data-name="Gruppe 13" transform="translate(166.646 5.811)">
        <path id="Pfad_13" data-name="Pfad 13" d="M.135.27a.91.91,0,0,0,.889-.726H2.239l.62.619V1.378a.907.907,0,1,0,.363,0V.089A.181.181,0,0,0,3.169-.04L2.443-.766a.185.185,0,0,0-.129-.053H1.024a.909.909,0,0,0-.889-.727.909.909,0,0,0-.908.908A.909.909,0,0,0,.135.27m3.45,2a.545.545,0,1,1-.544-.545.545.545,0,0,1,.544.545M.135-1.183A.546.546,0,0,1,.68-.638a.546.546,0,0,1-.545.545A.546.546,0,0,1-.41-.638a.546.546,0,0,1,.545-.545" transform="translate(0.773 1.546)" fill="#2b2e34"/>
      </g>
      <g id="Gruppe_14" data-name="Gruppe 14" transform="translate(163.741 8.717)">
        <path id="Pfad_14" data-name="Pfad 14" d="M.108.267v1.29a.185.185,0,0,0,.053.128l.727.727a.18.18,0,0,0,.128.053h1.29a.909.909,0,1,0,0-.363H1.091l-.62-.62V.267A.909.909,0,0,0,1.2-.622.909.909,0,0,0,.29-1.53a.908.908,0,0,0-.908.908A.91.91,0,0,0,.108.267M3.195,1.738a.545.545,0,1,1-.545.545.546.546,0,0,1,.545-.545m-2.9-2.9a.545.545,0,0,1,.544.545A.545.545,0,0,1,.29-.078.545.545,0,0,1-.255-.622.545.545,0,0,1,.29-1.167" transform="translate(0.618 1.53)" fill="#2b2e34"/>
      </g>
      <g id="Gruppe_15" data-name="Gruppe 15" transform="translate(66.024 3.277)">
        <path id="Pfad_15" data-name="Pfad 15" d="M.569.3c-1.578,0-1.788.589-1.788,2,0,.61-.042,1.156.484,1.578a1.9,1.9,0,0,0,1.3.315H2.735A2.742,2.742,0,0,1,5.785,7.075V9.3c0,1.977-1.262,2.986-3.175,2.986H-3.237V10.25H2c1.452,0,1.788-.5,1.767-1.85V7.664c0-1.136-.673-1.43-1.7-1.43H-.1A2.866,2.866,0,0,1-3.258,3.416V1.229a3.062,3.062,0,0,1,1.03-2.355A2.974,2.974,0,0,1-.146-1.737H5.806V.3Z" transform="translate(3.258 1.737)" fill="#d82b1f"/>
      </g>
      <g id="Gruppe_16" data-name="Gruppe 16" transform="translate(77.001 3.109)">
        <path id="Pfad_16" data-name="Pfad 16" d="M1.8,2.111V-9.014L-1.8.891c-.274.735-.569,1.451-1.473,1.451-.862,0-1.135-.694-1.387-1.388l-3.68-9.968V2.111h-1.956v-12.3a1.7,1.7,0,0,1,1.746-1.872,1.711,1.711,0,0,1,1.7,1.325L-3.292-.728.326-10.76a1.773,1.773,0,0,1,1.682-1.325,1.738,1.738,0,0,1,1.746,1.957V2.111Z" transform="translate(10.294 12.085)" fill="#d82b1f"/>
      </g>
      <g id="Gruppe_17" data-name="Gruppe 17" transform="translate(92.121 3.13)">
        <path id="Pfad_17" data-name="Pfad 17" d="M.9.366-1.116,6.654H3.133ZM5,12.08,3.785,8.589H-1.767L-2.987,12.08H-5.174L-.61-.812A1.682,1.682,0,0,1,1.009-2.1,1.664,1.664,0,0,1,2.628-.812L7.192,12.08Z" transform="translate(5.174 2.095)" fill="#d82b1f"/>
      </g>
      <g id="Gruppe_18" data-name="Gruppe 18" transform="translate(105.559 3.277)">
        <path id="Pfad_18" data-name="Pfad 18" d="M1.11,2.086-3.9-3.3a1.451,1.451,0,0,1-.253-.883c0-.862.463-1.178,1.262-1.2.988-.042,2,0,2.987-.02.946-.022,1.493-.421,1.493-1.41v-1.6C1.594-9.46.9-9.9-.089-9.9H-4.316V2.086h-2.04V-11.942H.5c1.935,0,3.133.989,3.133,2.987v2.419A2.759,2.759,0,0,1,.69-3.634H-1.666l5.32,5.719Z" transform="translate(6.356 11.942)" fill="#d82b1f"/>
      </g>
      <g id="Gruppe_19" data-name="Gruppe 19" transform="translate(117.083 3.277)">
        <path id="Pfad_19" data-name="Pfad 19" d="M.819.3V12.291h-2.04V.3h-3.47v-2.04h9V.3Z" transform="translate(4.691 1.737)" fill="#d82b1f"/>
      </g>
      <g id="Gruppe_20" data-name="Gruppe 20" transform="translate(66.339 22.036)">
        <path id="Pfad_20" data-name="Pfad 20" d="M1.195.513C1.195-.455.438-.9-.445-.9H-4.8V3.751H-.488c1.115,0,1.682-.421,1.682-1.578ZM.207,5.833H-4.8v5.258h-2.04V-2.936H.1A2.806,2.806,0,0,1,3.214-.181c.041,1.009.021,2,.021,3.007A2.79,2.79,0,0,1,.207,5.833" transform="translate(6.839 2.936)" fill="#d82b1f"/>
      </g>
      <g id="Gruppe_21" data-name="Gruppe 21" transform="translate(78.283 22.035)">
        <path id="Pfad_21" data-name="Pfad 21" d="M1.11,2.086-3.9-3.3a1.451,1.451,0,0,1-.253-.883c0-.862.463-1.178,1.262-1.2.989-.042,2,0,2.987-.02.946-.022,1.493-.421,1.493-1.41v-1.6C1.594-9.46.9-9.9-.089-9.9H-4.316V2.086h-2.04V-11.942H.5c1.935,0,3.133.989,3.133,2.987v2.419A2.759,2.759,0,0,1,.69-3.634H-1.666l5.32,5.719Z" transform="translate(6.356 11.942)" fill="#d82b1f"/>
      </g>
      <g id="Gruppe_22" data-name="Gruppe 22" transform="translate(90.355 22.036)">
        <path id="Pfad_22" data-name="Pfad 22" d="M1.163.563C1.163-.72.617-1.183-.646-1.183H-2.791c-1.262,0-1.829.442-1.829,1.746v6.5a1.8,1.8,0,0,0,.462,1.325,1.76,1.76,0,0,0,1.367.378H-.646c1.2,0,1.809-.378,1.809-1.64ZM-.183,10.8H-3.275a3.523,3.523,0,0,1-2.417-.694A3.231,3.231,0,0,1-6.66,7.65V-.026a3.3,3.3,0,0,1,.988-2.482,3.358,3.358,0,0,1,2.4-.714H-.162c2.166,0,3.344.967,3.344,3.2V7.63c0,2.208-1.22,3.175-3.365,3.175" transform="translate(6.66 3.222)" fill="#d82b1f"/>
      </g>
      <g id="Gruppe_23" data-name="Gruppe 23" transform="translate(102.446 22.036)">
        <path id="Pfad_23" data-name="Pfad 23" d="M1.21.55A1.5,1.5,0,0,0-.472-1.112H-4.889V8.836H-.472c1.219,0,1.682-.673,1.682-1.83ZM.2,10.876h-7.13V-3.151H.159C2.2-3.151,3.229-1.994,3.229,0V7.658c0,1.914-1.052,3.217-3.028,3.217" transform="translate(6.929 3.151)" fill="#d82b1f"/>
      </g>
      <g id="Gruppe_24" data-name="Gruppe 24" transform="translate(114.833 22.036)">
        <path id="Pfad_24" data-name="Pfad 24" d="M1.367,1.964a2.981,2.981,0,0,1-2.545.82h-3.2a3.045,3.045,0,0,1-2.544-.82,3.164,3.164,0,0,1-.9-2.713V-11.243h2.04V-1.128c0,1.493.5,1.872,1.956,1.872h2.1C-.316.744.231.386.231-1.086V-11.243h2.04V-.75a3.317,3.317,0,0,1-.9,2.713" transform="translate(7.824 11.243)" fill="#d82b1f"/>
      </g>
      <g id="Gruppe_25" data-name="Gruppe 25" transform="translate(127.157 22.035)">
        <path id="Pfad_25" data-name="Pfad 25" d="M.56.3A1.681,1.681,0,0,0-.7.639a1.434,1.434,0,0,0-.463,1.2V8.463c0,1.346.505,1.788,1.83,1.788H5.922v2.04H-.092A2.857,2.857,0,0,1-3.2,9.136V1.376a2.967,2.967,0,0,1,.862-2.46A3.394,3.394,0,0,1,.076-1.737H5.943V.3Z" transform="translate(3.205 1.737)" fill="#d82b1f"/>
      </g>
      <g id="Gruppe_26" data-name="Gruppe 26" transform="translate(137.797 22.035)">
        <path id="Pfad_26" data-name="Pfad 26" d="M.819.3V12.291h-2.04V.3h-3.47v-2.04h9V.3Z" transform="translate(4.691 1.737)" fill="#d82b1f"/>
      </g>
      <path id="Pfad_27" data-name="Pfad 27" d="M126.468-27.778h2.04V-13.75h-2.04Z" transform="translate(22.055 49.813)" fill="#d82b1f"/>
      <g id="Gruppe_27" data-name="Gruppe 27" transform="translate(152.792 22.036)">
        <path id="Pfad_28" data-name="Pfad 28" d="M1.163.563C1.163-.72.617-1.183-.646-1.183H-2.791c-1.262,0-1.83.442-1.83,1.746v6.5a1.8,1.8,0,0,0,.463,1.325,1.76,1.76,0,0,0,1.367.378H-.646c1.2,0,1.809-.378,1.809-1.64ZM-.183,10.8H-3.275a3.523,3.523,0,0,1-2.417-.694A3.231,3.231,0,0,1-6.66,7.65V-.026a3.3,3.3,0,0,1,.988-2.482,3.358,3.358,0,0,1,2.4-.714H-.162c2.166,0,3.344.967,3.344,3.2V7.63c0,2.208-1.22,3.175-3.365,3.175" transform="translate(6.66 3.222)" fill="#d82b1f"/>
      </g>
      <g id="Gruppe_28" data-name="Gruppe 28" transform="translate(164.884 21.91)">
        <path id="Pfad_29" data-name="Pfad 29" d="M1.257,2.129c-1.136,0-1.325-.737-1.746-1.6L-5.241-9.416V1.962H-7.2V-10.132c0-1.094.421-2.06,1.661-2.06,1.136,0,1.367.694,1.788,1.578L.962-.689V-12.066H2.918V.215A1.718,1.718,0,0,1,1.257,2.129" transform="translate(7.197 12.192)" fill="#d82b1f"/>
      </g>
      <g id="Gruppe_29" data-name="Gruppe 29" transform="translate(66.047 39.809)">
        <path id="Pfad_30" data-name="Pfad 30" d="M.281.062A1.345,1.345,0,0,0-.762.369,1.291,1.291,0,0,0-1.2,1.387v4.54A1.365,1.365,0,0,0-.749,7.081a1.489,1.489,0,0,0,1.165.343H3.679v.405H.134A1.491,1.491,0,0,1-1.057,7.4a1.691,1.691,0,0,1-.551-1.447V1.412A1.721,1.721,0,0,1-1.019.037,1.8,1.8,0,0,1,.268-.355H3.7V.062Z" transform="translate(1.608 0.355)" fill="#2b2e34"/>
      </g>
      <g id="Gruppe_30" data-name="Gruppe 30" transform="translate(72.585 41.821)">
        <path id="Pfad_31" data-name="Pfad 31" d="M.48.055H-.895c-.92,0-1.485.295-1.485,1.3V3.38l4.331-1.9c0-.061.013-.11.013-.172C1.965.325,1.363.055.48.055M2.345,1.711-2.379,3.784c.025.529-.049,1.117.442,1.473A1.6,1.6,0,0,0-.931,5.49H2.332v.369H-.845c-1.264,0-1.9-.417-1.9-1.755V1.465A1.767,1.767,0,0,1-2.134-.056,1.887,1.887,0,0,1-1.017-.313H.627A1.68,1.68,0,0,1,1.952.116,1.529,1.529,0,0,1,2.345,1.33Z" transform="translate(2.747 0.313)" fill="#2b2e34"/>
      </g>
      <g id="Gruppe_31" data-name="Gruppe 31" transform="translate(79.148 41.821)">
        <path id="Pfad_32" data-name="Pfad 32" d="M.69.918V-3.72c0-.9-.589-1.166-1.4-1.166H-2.17a1.658,1.658,0,0,0-.969.209,1.154,1.154,0,0,0-.442.957V.918h-.368V-3.708a1.5,1.5,0,0,1,.577-1.276,2.047,2.047,0,0,1,1.2-.27h1.46c1.092,0,1.767.356,1.767,1.546V.918Z" transform="translate(3.948 5.254)" fill="#2b2e34"/>
      </g>
      <g id="Gruppe_32" data-name="Gruppe 32" transform="translate(85.834 39.809)">
        <path id="Pfad_33" data-name="Pfad 33" d="M.055.354v5.8H-.313V-2.026H.055V-.014H1.8V.354Z" transform="translate(0.313 2.026)" fill="#2b2e34"/>
      </g>
      <g id="Gruppe_33" data-name="Gruppe 33" transform="translate(88.765 41.821)">
        <path id="Pfad_34" data-name="Pfad 34" d="M.48.055H-.895c-.92,0-1.485.295-1.485,1.3V3.38l4.331-1.9c0-.061.013-.11.013-.172C1.965.325,1.363.055.48.055M2.345,1.711-2.379,3.784c.025.529-.049,1.117.442,1.473A1.6,1.6,0,0,0-.931,5.49H2.332v.369H-.845c-1.264,0-1.9-.417-1.9-1.755V1.465A1.767,1.767,0,0,1-2.134-.056,1.887,1.887,0,0,1-1.017-.313H.627A1.68,1.68,0,0,1,1.952.116,1.529,1.529,0,0,1,2.345,1.33Z" transform="translate(2.747 0.313)" fill="#2b2e34"/>
      </g>
      <g id="Gruppe_34" data-name="Gruppe 34" transform="translate(95.328 41.821)">
        <path id="Pfad_35" data-name="Pfad 35" d="M.245.055c-.9,0-1.276.516-1.276,1.374v4.43H-1.4V1.429C-1.4.251-.884-.313.306-.313H.723V.055Z" transform="translate(1.4 0.313)" fill="#2b2e34"/>
      </g>
      <g id="Gruppe_35" data-name="Gruppe 35" transform="translate(100.223 41.822)">
        <path id="Pfad_36" data-name="Pfad 36" d="M.69.252C.69-.485.358-1.073-.451-1.073H-2.377a1.07,1.07,0,0,0-.786.258A1.136,1.136,0,0,0-3.58.2V3.16a1.112,1.112,0,0,0,1.252,1.2H-.513A1.094,1.094,0,0,0,.69,3.135ZM.505,4.411a1.459,1.459,0,0,1-1.068.32H-2.316a1.5,1.5,0,0,1-1.068-.32A1.487,1.487,0,0,1-3.948,3V.362A1.585,1.585,0,0,1-3.384-1.1a1.385,1.385,0,0,1,1.056-.343H-.5A1.38,1.38,0,0,1,.53-1.11,1.72,1.72,0,0,1,1.057.362V3A1.546,1.546,0,0,1,.505,4.411" transform="translate(3.948 1.441)" fill="#2b2e34"/>
      </g>
      <g id="Gruppe_36" data-name="Gruppe 36" transform="translate(106.884 39.809)">
        <path id="Pfad_37" data-name="Pfad 37" d="M.055.354v5.8H-.313V-.383A1.461,1.461,0,0,1,1.22-2.026h.516v.368H1.258A1.166,1.166,0,0,0,.055-.406v.392H1.747V.354Z" transform="translate(0.313 2.026)" fill="#2b2e34"/>
      </g>
      <g id="Gruppe_37" data-name="Gruppe 37" transform="translate(111.386 39.809)">
        <path id="Pfad_38" data-name="Pfad 38" d="M.272,1.217A1.71,1.71,0,0,1-1.556-.574V-5.1A1.772,1.772,0,0,1,.358-6.967H3.719v.417H.333a1.662,1.662,0,0,0-1.08.381A1.257,1.257,0,0,0-1.164-5.1V-3.04H3.719v.417H-1.152V-.636A1.375,1.375,0,0,0,.333.812H3.719v.405Z" transform="translate(1.556 6.967)" fill="#2b2e34"/>
      </g>
      <g id="Gruppe_38" data-name="Gruppe 38" transform="translate(117.483 41.821)">
        <path id="Pfad_39" data-name="Pfad 39" d="M.722.918-1.437-1.867-3.633.918h-.5l2.466-3.08L-4.088-5.254H-3.6L-1.45-2.469.673-5.254h.5L-1.2-2.174,1.213.918Z" transform="translate(4.136 5.254)" fill="#2b2e34"/>
      </g>
      <g id="Gruppe_39" data-name="Gruppe 39" transform="translate(123.825 41.821)">
        <path id="Pfad_40" data-name="Pfad 40" d="M.272.918A1.779,1.779,0,0,1-.992.575a1.524,1.524,0,0,1-.564-1.35v-2.9a1.383,1.383,0,0,1,.392-1.152,1.559,1.559,0,0,1,1.251-.43H2.48v.368H.148c-.809,0-1.337.295-1.337,1.166v2.9A1.349,1.349,0,0,0-.758.267,1.456,1.456,0,0,0,.3.55H2.518V.918Z" transform="translate(1.556 5.254)" fill="#2b2e34"/>
      </g>
      <g id="Gruppe_40" data-name="Gruppe 40" transform="translate(129.124 41.821)">
        <path id="Pfad_41" data-name="Pfad 41" d="M.48.055H-.895c-.92,0-1.485.295-1.485,1.3V3.38l4.331-1.9c0-.061.013-.11.013-.172C1.965.325,1.363.055.48.055M2.345,1.711-2.379,3.784c.025.529-.049,1.117.442,1.473A1.6,1.6,0,0,0-.931,5.49H2.332v.369H-.845c-1.264,0-1.9-.417-1.9-1.755V1.465A1.767,1.767,0,0,1-2.134-.056,1.887,1.887,0,0,1-1.017-.313H.627A1.68,1.68,0,0,1,1.952.116,1.529,1.529,0,0,1,2.345,1.33Z" transform="translate(2.747 0.313)" fill="#2b2e34"/>
      </g>
      <path id="Pfad_42" data-name="Pfad 42" d="M115.54-12.647h.369v8.184h-.369Z" transform="translate(20.146 52.456)" fill="#2b2e34"/>
      <path id="Pfad_43" data-name="Pfad 43" d="M117.243-12.647h.368v8.184h-.368Z" transform="translate(20.444 52.456)" fill="#2b2e34"/>
      <g id="Gruppe_41" data-name="Gruppe 41" transform="translate(139.711 41.821)">
        <path id="Pfad_44" data-name="Pfad 44" d="M.48.055H-.895c-.92,0-1.485.295-1.485,1.3V3.38l4.331-1.9c0-.061.013-.11.013-.172C1.965.325,1.363.055.48.055M2.345,1.711-2.379,3.784c.025.529-.049,1.117.442,1.473A1.6,1.6,0,0,0-.931,5.49H2.332v.369H-.845c-1.264,0-1.9-.417-1.9-1.755V1.465A1.767,1.767,0,0,1-2.134-.056,1.887,1.887,0,0,1-1.017-.313H.627A1.68,1.68,0,0,1,1.952.116,1.529,1.529,0,0,1,2.345,1.33Z" transform="translate(2.747 0.313)" fill="#2b2e34"/>
      </g>
      <g id="Gruppe_42" data-name="Gruppe 42" transform="translate(146.261 41.821)">
        <path id="Pfad_45" data-name="Pfad 45" d="M.69.918V-3.72c0-.9-.59-1.166-1.4-1.166h-1.46a1.658,1.658,0,0,0-.969.209,1.154,1.154,0,0,0-.442.957V.918h-.369V-3.708a1.5,1.5,0,0,1,.577-1.276,2.05,2.05,0,0,1,1.2-.27h1.46c1.092,0,1.767.356,1.767,1.546V.918Z" transform="translate(3.949 5.254)" fill="#2b2e34"/>
      </g>
      <g id="Gruppe_43" data-name="Gruppe 43" transform="translate(152.923 41.821)">
        <path id="Pfad_46" data-name="Pfad 46" d="M.272.918A1.779,1.779,0,0,1-.992.575a1.524,1.524,0,0,1-.564-1.35v-2.9a1.383,1.383,0,0,1,.392-1.152,1.559,1.559,0,0,1,1.251-.43H2.48v.368H.148c-.809,0-1.337.295-1.337,1.166v2.9A1.345,1.345,0,0,0-.758.267,1.456,1.456,0,0,0,.3.55H2.518V.918Z" transform="translate(1.556 5.254)" fill="#2b2e34"/>
      </g>
      <g id="Gruppe_44" data-name="Gruppe 44" transform="translate(158.222 41.821)">
        <path id="Pfad_47" data-name="Pfad 47" d="M.48.055H-.895c-.92,0-1.485.295-1.485,1.3V3.38l4.331-1.9c0-.061.013-.11.013-.172C1.965.325,1.363.055.48.055M2.345,1.711-2.379,3.784c.025.529-.049,1.117.442,1.473A1.6,1.6,0,0,0-.931,5.49H2.332v.369H-.845c-1.264,0-1.9-.417-1.9-1.755V1.465A1.767,1.767,0,0,1-2.134-.056,1.887,1.887,0,0,1-1.017-.313H.627A1.68,1.68,0,0,1,1.952.116,1.529,1.529,0,0,1,2.345,1.33Z" transform="translate(2.747 0.313)" fill="#2b2e34"/>
      </g>
      <g id="Gruppe_45" data-name="Gruppe 45" transform="translate(5.683 -0.001)">
        <path id="Pfad_48" data-name="Pfad 48" d="M7.39,4.915c-9.749-13.513-.24-33.057-.24-33.057h-47.48S-30.6-8.6-40.691,4.915C-48,14.7-28.946,20.561-16.65,23.129-4.279,20.561,14.525,14.808,7.39,4.915M-16.65,22.442C-28.337,16.716-47.98,12.77-39.5,4.621c13.531-13,0-32.077,0-32.077s12.61.768,22.846.768S6.2-27.456,6.2-27.456-7.332-8.383,6.2,4.621c8.476,8.15-11.091,12.1-22.851,17.822" transform="translate(42.311 28.142)" fill="#d82b1f"/>
      </g>
      <g id="Gruppe_46" data-name="Gruppe 46" transform="translate(20.149 7.406)">
        <path id="Pfad_49" data-name="Pfad 49" d="M3.047,3.32H-15.6V-1.7a11.112,11.112,0,0,1-1.845-6.147A11.123,11.123,0,0,1-15.6-13.994v-1.325h1.028a11.185,11.185,0,0,1,8.3-3.691,11.183,11.183,0,0,1,8.3,3.691H3.047v1.325A11.123,11.123,0,0,1,4.892-7.845,11.109,11.109,0,0,1,3.047-1.7Zm-7.056-.231H2.817V-1.362A11.167,11.167,0,0,1-4.009,3.089M-15.367-1.768A10.923,10.923,0,0,0-6.276,3.089,10.93,10.93,0,0,0,2.817-1.768V-13.924a11.207,11.207,0,0,0-.9-1.165H-14.468a11.027,11.027,0,0,0-.9,1.165Zm0,4.857h6.825a11.162,11.162,0,0,1-6.825-4.451ZM-15.6-13.564a10.883,10.883,0,0,0-1.614,5.719A10.869,10.869,0,0,0-15.6-2.128Zm18.647,0V-2.128A10.869,10.869,0,0,0,4.661-7.845a10.883,10.883,0,0,0-1.614-5.719m-.825-1.525q.312.366.594.76v-.76Zm-17.589,0v.759c.184-.261.384-.515.592-.759Zm1.109-.23H1.707a10.957,10.957,0,0,0-7.983-3.459,10.957,10.957,0,0,0-7.982,3.459" transform="translate(17.445 19.01)" fill="#2b2e34"/>
      </g>
      <g id="Gruppe_47" data-name="Gruppe 47" transform="translate(22.021 11.262)">
        <path id="Pfad_50" data-name="Pfad 50" d="M.577,2.529.389,2.41l2.5-7.725L-3.3-11.1l.079-.2H4.831L5.86-14.482h.22L7.094-11.3h8.115l.079.2L9.012-5.288l2.456,7.7-.189.119L5.953-2.453Zm2.5-7.671L.746,2.058,5.783-2.611Zm3.045,2.53,4.991,4.669L8.825-5.115ZM3.156-5.383l2.8,2.615,2.795-2.59L6.924-11.073H5Zm4.011-5.69L8.934-5.532l5.979-5.541Zm-10.1,0,5.9,5.516,1.787-5.516Zm8-.231H6.85l-.881-2.764Z" transform="translate(3.301 14.482)" fill="#2b2e34"/>
      </g>
      <g id="Gruppe_48" data-name="Gruppe 48" transform="translate(17.687 7.143)">
        <path id="Pfad_51" data-name="Pfad 51" d="M.2.514,1.378-.353A.629.629,0,0,0,1.5-1.191L1.25-1.544a.637.637,0,0,0-.892-.132l-.549.4A.234.234,0,0,1-.525-1.3l-.116-.162A.2.2,0,0,1-.6-1.748L-.526-1.8.519-2.573.253-2.945-.9-2.1a.582.582,0,0,0-.121.875l.2.281a.57.57,0,0,0,.433.234A.718.718,0,0,0,.068-.886l.5-.366A.225.225,0,0,1,.934-1.2l.125.173c.1.139.1.27.008.336l-.093.07L-.064.142Z" transform="translate(1.165 2.945)" fill="#2b2e34"/>
      </g>
      <g id="Gruppe_49" data-name="Gruppe 49" transform="translate(19.737 5.811)">
        <path id="Pfad_52" data-name="Pfad 52" d="M0,.136l.221.4,1.351-.76c.167-.1.267-.081.329.036l.087.156L1,.527C.611.749.547,1.135.811,1.618l.16.29a.733.733,0,0,0,.962.308l.8-.449A.723.723,0,0,0,2.977.82L2.3-.424A.756.756,0,0,0,1.888-.75c-.164-.049-.25-.035-.475.09Zm1.572,1.7a.25.25,0,0,1-.116-.051A.368.368,0,0,1,1.371,1.7L1.158,1.3A.32.32,0,0,1,1.331.862l.553-.31A.312.312,0,0,1,2.35.635l.213.39a.3.3,0,0,1,.028.125.278.278,0,0,1-.014.125c-.02.046-.083.1-.211.173l-.539.3a.48.48,0,0,1-.255.09" transform="translate(0 0.777)" fill="#2b2e34"/>
      </g>
      <g id="Gruppe_50" data-name="Gruppe 50" transform="translate(22.744 4.591)">
        <path id="Pfad_53" data-name="Pfad 53" d="M.165.6.588.44.269-.4,1.322-.811A.732.732,0,0,0,1.7-1.784l-.47-1.238a.631.631,0,0,0-.907-.371l-.8.312a.65.65,0,0,0-.409.916ZM0-1.128-.446-2.3c-.063-.167,0-.3.2-.381l.756-.295c.15-.059.251-.009.315.157L1.291-1.59a.26.26,0,0,1-.143.352l-.8.312A.278.278,0,0,1,0-1.128" transform="translate(0.944 3.46)" fill="#2b2e34"/>
      </g>
      <g id="Gruppe_51" data-name="Gruppe 51" transform="translate(25.771 3.811)">
        <path id="Pfad_54" data-name="Pfad 54" d="M.393.383.3-.067-1.167.248C-1.3.277-1.385.263-1.435.206A.5.5,0,0,1-1.5.1a1.192,1.192,0,0,1-.038-.114l-.02-.088,1.571-1.2-.066-.32A.654.654,0,0,0-.905-2.17l-.661.143a.723.723,0,0,0-.655.959L-1.968.144A.691.691,0,0,0-1.092.7ZM-1.774-1.155c-.051-.24.012-.358.223-.4l.726-.159c.206-.043.283,0,.318.172L-.5-1.5l-1.164.89Z" transform="translate(2.25 2.193)" fill="#2b2e34"/>
      </g>
      <g id="Gruppe_52" data-name="Gruppe 52" transform="translate(28.55 3.498)">
        <path id="Pfad_55" data-name="Pfad 55" d="M.038.426.488.37.245-1.644c-.02-.173.052-.284.217-.3l.221-.028L.628-2.439l-.256.031a.8.8,0,0,0-.492.25A.832.832,0,0,0-.207-1.6Z" transform="translate(0.218 2.439)" fill="#2b2e34"/>
      </g>
      <g id="Gruppe_53" data-name="Gruppe 53" transform="translate(29.935 3.43)">
        <path id="Pfad_56" data-name="Pfad 56" d="M.341.41.332-.049l-1.5.026c-.135,0-.217-.026-.255-.093a.427.427,0,0,1-.041-.122c-.011-.067-.016-.108-.016-.117l0-.092L.285-1.319l0-.328a.657.657,0,0,0-.735-.7l-.675.013c-.565.009-.834.276-.825.814L-1.93-.282a.689.689,0,0,0,.752.718ZM-1.5-1.519c0-.246.081-.35.3-.354l.742-.014c.213,0,.28.059.281.231l0,.046-1.311.648Z" transform="translate(1.954 2.347)" fill="#2b2e34"/>
      </g>
      <g id="Gruppe_54" data-name="Gruppe 54" transform="translate(34.109 3.658)">
        <path id="Pfad_57" data-name="Pfad 57" d="M.064,0-.03.45,1.479.775c.188.041.255.117.227.249L1.67,1.2.568.962c-.437-.1-.739.155-.852.7l-.067.325a.754.754,0,0,0,.527.874l.9.194a.706.706,0,0,0,.8-.552l.292-1.392a.77.77,0,0,0-.1-.518C1.968.442,1.894.395,1.644.339ZM.148,2.332A.29.29,0,0,1,.1,2.215a.342.342,0,0,1,0-.128l.092-.435c.036-.179.2-.265.415-.217l.619.132c.222.047.336.194.3.374l-.09.437a.276.276,0,0,1-.06.112.3.3,0,0,1-.092.086A.485.485,0,0,1,1,2.563l-.6-.13a.475.475,0,0,1-.253-.1" transform="translate(0.366)" fill="#2b2e34"/>
      </g>
      <g id="Gruppe_55" data-name="Gruppe 55" transform="translate(36.864 4.381)">
        <path id="Pfad_58" data-name="Pfad 58" d="M.422.111,0-.039-.645,1.855c-.07.209-.176.254-.392.179l-.686-.241a.338.338,0,0,1-.211-.15.163.163,0,0,1-.02-.11.737.737,0,0,1,.035-.122l.644-1.894-.431-.149-.66,1.951a.722.722,0,0,0,.043.611.752.752,0,0,0,.449.309l.684.24a.777.777,0,0,0,.546.04.728.728,0,0,0,.4-.455Z" transform="translate(2.414 0.633)" fill="#2b2e34"/>
      </g>
      <g id="Gruppe_56" data-name="Gruppe 56" transform="translate(39.565 5.653)">
        <path id="Pfad_59" data-name="Pfad 59" d="M.519.033l-.4-.222L-.32.617-1.239.1A.641.641,0,0,0-2.22.35l-.641,1.172a.659.659,0,0,0-.089.522.8.8,0,0,0,.334.448l.781.439a.718.718,0,0,0,.963-.349ZM-2.452,1.725-1.857.636c.107-.2.224-.233.409-.128l.654.368a.257.257,0,0,1,.11.41l-.579,1.06a.3.3,0,0,1-.419.146l-.7-.392a.271.271,0,0,1-.073-.374" transform="translate(2.972 0.189)" fill="#2b2e34"/>
      </g>
      <g id="Gruppe_57" data-name="Gruppe 57" transform="translate(41.995 7.436)">
        <path id="Pfad_60" data-name="Pfad 60" d="M.232.492.5.12-.714-.774C-.826-.856-.873-.929-.862-1a.439.439,0,0,1,.039-.123,1.135,1.135,0,0,1,.056-.1L-.714-1.3l1.928.382L1.4-1.186a.668.668,0,0,0-.169-1.008L.685-2.6a.71.71,0,0,0-1.142.144l-.715,1A.7.7,0,0,0-1-.413ZM-.095-2.172c.142-.2.271-.231.448-.1l.6.442c.17.127.189.217.088.356l-.028.039L-.418-1.72Z" transform="translate(1.326 2.818)" fill="#2b2e34"/>
      </g>
      <g id="Gruppe_58" data-name="Gruppe 58" transform="translate(11.991 33.736)">
        <path id="Pfad_61" data-name="Pfad 61" d="M.13.625H8.219V-.253H.13V-.6A2.03,2.03,0,0,1,2.163-2.7H8.219v-.879H2.163A2.872,2.872,0,0,0-.747-.6v3.35H.13Z" transform="translate(0.747 3.576)" fill="#d82b1f"/>
      </g>
      <g id="Gruppe_59" data-name="Gruppe 59" transform="translate(21.971 31.881)">
        <path id="Pfad_62" data-name="Pfad 62" d="M.13.4v-2.67H-.747V5.9H.13V2.128A1.93,1.93,0,0,1,2.112.5h3.21A2.033,2.033,0,0,1,7.355,2.53V5.9h.876V2.53A2.9,2.9,0,0,0,5.322-.381H2.112A2.847,2.847,0,0,0,.13.4" transform="translate(0.747 2.273)" fill="#d82b1f"/>
      </g>
      <g id="Gruppe_60" data-name="Gruppe 60" transform="translate(33.231 33.773)">
        <path id="Pfad_63" data-name="Pfad 63" d="M1.2.123A2.77,2.77,0,0,0-.766-.7h-3.3a2.772,2.772,0,0,0-1.97.825A2.947,2.947,0,0,0-6.89,2.209v.464a2.951,2.951,0,0,0,.853,2.085,2.772,2.772,0,0,0,1.97.825h3.3A2.77,2.77,0,0,0,1.2,4.758a2.945,2.945,0,0,0,.852-2.085V2.209A2.941,2.941,0,0,0,1.2.123m0,2.55A2,2,0,0,1-.766,4.7h-3.3a2,2,0,0,1-1.97-2.031V2.209A2,2,0,0,1-4.067.177h3.3A2,2,0,0,1,1.2,2.209Z" transform="translate(6.89 0.702)" fill="#2b2e34"/>
      </g>
      <g id="Gruppe_61" data-name="Gruppe 61" transform="translate(42.874 33.773)">
        <path id="Pfad_64" data-name="Pfad 64" d="M1.2.123A2.77,2.77,0,0,0-.766-.7h-3.3a2.774,2.774,0,0,0-1.97.825A2.951,2.951,0,0,0-6.89,2.209v.464a2.955,2.955,0,0,0,.852,2.085,2.774,2.774,0,0,0,1.97.825h3.3A2.77,2.77,0,0,0,1.2,4.758a2.945,2.945,0,0,0,.852-2.085V2.209A2.941,2.941,0,0,0,1.2.123m0,2.55A2,2,0,0,1-.766,4.7h-3.3a2,2,0,0,1-1.97-2.031V2.209A2,2,0,0,1-4.068.177h3.3A2,2,0,0,1,1.2,2.209Z" transform="translate(6.89 0.702)" fill="#2b2e34"/>
      </g>
      <path id="Pfad_65" data-name="Pfad 65" d="M39.094-18.29h.847v-1.138h-.847Z" transform="translate(6.794 51.272)" fill="#2b2e34"/>
      <path id="Pfad_66" data-name="Pfad 66" d="M40.856-18.29H41.7v-1.138h-.847Z" transform="translate(7.102 51.272)" fill="#2b2e34"/>
    </g>
  </g>
</svg>
